{
    "asset" : {
        "generator" : "Khronos glTF Blender I/O v1.5.17",
        "version" : "2.0"
    },
    "scene" : 0,
    "scenes" : [
        {
            "name" : "Scene",
            "nodes" : [
                0
            ]
        }
    ],
    "nodes" : [
        {
            "mesh" : 0,
            "name" : "Plane",
            "rotation" : [
                0.36515697836875916,
                0.6055248975753784,
                0.6055248975753784,
                0.36515694856643677
            ]
        }
    ],
    "materials" : [
        {
            "doubleSided" : true,
            "name" : "Material.001",
            "pbrMetallicRoughness" : {
                "baseColorTexture" : {
                    "index" : 0
                },
                "metallicFactor" : 0,
                "roughnessFactor" : 0.5
            }
        }
    ],
    "meshes" : [
        {
            "name" : "Plane",
            "primitives" : [
                {
                    "attributes" : {
                        "POSITION" : 0,
                        "NORMAL" : 1,
                        "TEXCOORD_0" : 2
                    },
                    "indices" : 3,
                    "material" : 0
                }
            ]
        }
    ],
    "textures" : [
        {
            "sampler" : 0,
            "source" : 0
        }
    ],
    "images" : [
        {
            "bufferView" : 4,
            "mimeType" : "image/jpeg",
            "name" : "Different-amoebas-on-abstract-background"
        }
    ],
    "accessors" : [
        {
            "bufferView" : 0,
            "componentType" : 5126,
            "count" : 1543,
            "max" : [
                0.5863342881202698,
                0.01365575660020113,
                0.04998102784156799
            ],
            "min" : [
                -0.05792601779103279,
                -7.423368586501056e-10,
                -0.5361698269844055
            ],
            "type" : "VEC3"
        },
        {
            "bufferView" : 1,
            "componentType" : 5126,
            "count" : 1543,
            "type" : "VEC3"
        },
        {
            "bufferView" : 2,
            "componentType" : 5126,
            "count" : 1543,
            "type" : "VEC2"
        },
        {
            "bufferView" : 3,
            "componentType" : 5123,
            "count" : 2475,
            "type" : "SCALAR"
        }
    ],
    "bufferViews" : [
        {
            "buffer" : 0,
            "byteLength" : 18516,
            "byteOffset" : 0
        },
        {
            "buffer" : 0,
            "byteLength" : 18516,
            "byteOffset" : 18516
        },
        {
            "buffer" : 0,
            "byteLength" : 12344,
            "byteOffset" : 37032
        },
        {
            "buffer" : 0,
            "byteLength" : 4950,
            "byteOffset" : 49376
        },
        {
            "buffer" : 0,
            "byteLength" : 876340,
            "byteOffset" : 54328
        }
    ],
    "samplers" : [
        {
            "magFilter" : 9729,
            "minFilter" : 9987
        }
    ],
    "buffers" : [
        {
            "byteLength" : 930668,
            "uri" : "data:application/octet-stream;base64,"
        }
    ]
}
