{
    "asset" : {
        "generator" : "Khronos glTF Blender I/O v1.5.17",
        "version" : "2.0"
    },
    "scene" : 0,
    "scenes" : [
        {
            "name" : "Scene",
            "nodes" : [
                0,
                1
            ]
        }
    ],
    "nodes" : [
        {
            "mesh" : 0,
            "name" : "einzeller",
            "rotation" : [
                0.36515697836875916,
                0.6055248975753784,
                0.6055248975753784,
                0.36515694856643677
            ],
            "scale" : [
                2.4333114624023438,
                2.4333114624023438,
                2.4333114624023438
            ]
        },
        {
            "mesh" : 1,
            "name" : "Cube",
            "scale" : [
                0.1772189736366272,
                0.1772189736366272,
                0.14738404750823975
            ],
            "translation" : [
                0.10327102988958359,
                1.6198925971984863,
                0
            ]
        }
    ],
    "materials" : [
        {
            "doubleSided" : true,
            "name" : "Material.001",
            "pbrMetallicRoughness" : {
                "baseColorTexture" : {
                    "index" : 0
                },
                "metallicFactor" : 0,
                "roughnessFactor" : 0.5
            }
        },
        {
            "doubleSided" : true,
            "name" : "Material.003",
            "pbrMetallicRoughness" : {
                "baseColorTexture" : {
                    "index" : 1
                },
                "metallicFactor" : 0,
                "roughnessFactor" : 0.5
            }
        }
    ],
    "meshes" : [
        {
            "name" : "Plane",
            "primitives" : [
                {
                    "attributes" : {
                        "POSITION" : 0,
                        "NORMAL" : 1,
                        "TEXCOORD_0" : 2
                    },
                    "indices" : 3,
                    "material" : 0
                }
            ]
        },
        {
            "name" : "Cube",
            "primitives" : [
                {
                    "attributes" : {
                        "POSITION" : 4,
                        "NORMAL" : 5,
                        "TEXCOORD_0" : 6
                    },
                    "indices" : 7,
                    "material" : 1
                }
            ]
        }
    ],
    "textures" : [
        {
            "sampler" : 0,
            "source" : 0
        },
        {
            "sampler" : 0,
            "source" : 1
        }
    ],
    "images" : [
        {
            "bufferView" : 4,
            "mimeType" : "image/jpeg",
            "name" : "Different-amoebas-on-abstract-background"
        },
        {
            "bufferView" : 9,
            "mimeType" : "image/png",
            "name" : "hat"
        }
    ],
    "accessors" : [
        {
            "bufferView" : 0,
            "componentType" : 5126,
            "count" : 1545,
            "max" : [
                0.5421931147575378,
                0.013655773364007473,
                0.42224836349487305
            ],
            "min" : [
                -0.10206716507673264,
                1.6170925931646707e-08,
                -0.16390252113342285
            ],
            "type" : "VEC3"
        },
        {
            "bufferView" : 1,
            "componentType" : 5126,
            "count" : 1545,
            "type" : "VEC3"
        },
        {
            "bufferView" : 2,
            "componentType" : 5126,
            "count" : 1545,
            "type" : "VEC2"
        },
        {
            "bufferView" : 3,
            "componentType" : 5123,
            "count" : 2475,
            "type" : "SCALAR"
        },
        {
            "bufferView" : 5,
            "componentType" : 5126,
            "count" : 80,
            "max" : [
                2.074512243270874,
                0.3566642999649048,
                1
            ],
            "min" : [
                -2.4020044803619385,
                -1.6924691200256348,
                0
            ],
            "type" : "VEC3"
        },
        {
            "bufferView" : 6,
            "componentType" : 5126,
            "count" : 80,
            "type" : "VEC3"
        },
        {
            "bufferView" : 7,
            "componentType" : 5126,
            "count" : 80,
            "type" : "VEC2"
        },
        {
            "bufferView" : 8,
            "componentType" : 5123,
            "count" : 120,
            "type" : "SCALAR"
        }
    ],
    "bufferViews" : [
        {
            "buffer" : 0,
            "byteLength" : 18540,
            "byteOffset" : 0
        },
        {
            "buffer" : 0,
            "byteLength" : 18540,
            "byteOffset" : 18540
        },
        {
            "buffer" : 0,
            "byteLength" : 12360,
            "byteOffset" : 37080
        },
        {
            "buffer" : 0,
            "byteLength" : 4950,
            "byteOffset" : 49440
        },
        {
            "buffer" : 0,
            "byteLength" : 876340,
            "byteOffset" : 54392
        },
        {
            "buffer" : 0,
            "byteLength" : 960,
            "byteOffset" : 930732
        },
        {
            "buffer" : 0,
            "byteLength" : 960,
            "byteOffset" : 931692
        },
        {
            "buffer" : 0,
            "byteLength" : 640,
            "byteOffset" : 932652
        },
        {
            "buffer" : 0,
            "byteLength" : 240,
            "byteOffset" : 933292
        },
        {
            "buffer" : 0,
            "byteLength" : 331866,
            "byteOffset" : 933532
        }
    ],
    "samplers" : [
        {
            "magFilter" : 9729,
            "minFilter" : 9987
        }
    ],
    "buffers" : [
        {
            "byteLength" : 1265400,
            "uri" : "data:application/octet-stream;base64,"
        }
    ]
}
